<svg width="274" height="27" viewBox="0 0 274 27" fill="none" xmlns="http://www.w3.org/2000/svg">
<path d="M266.033 8.30396C270.913 8.30396 273.537 10.144 273.281 13.504L268.673 13.872C268.545 12.512 267.729 11.84 265.729 11.84C263.937 11.84 263.009 12.368 263.009 13.28C263.009 14.432 264.497 14.672 267.569 15.488C270.801 16.352 273.777 17.168 273.777 20.72C273.777 24.256 270.801 26.384 265.329 26.384C260.561 26.384 258.257 24.816 257.633 21.088L262.289 20.608C262.705 22.208 263.553 22.864 265.633 22.864C267.809 22.864 268.593 22.144 268.593 21.328C268.593 20.192 267.057 19.872 263.985 19.12C260.689 18.32 258.161 16.96 258.161 13.664C258.161 10.256 260.833 8.30396 266.033 8.30396Z" fill="black"/>
<path d="M238.189 25.9999V21.8239H243.485L243.501 5.69589H238.205V1.51989L248.045 1.08789L248.621 1.64789L248.605 21.8239H253.901V25.9999H238.189Z" fill="black"/>
<path d="M225.497 8.30396C229.993 8.30396 232.905 9.79196 232.905 13.728V21.152C232.905 22.128 233.177 22.4 234.473 22.336V26C233.433 26.256 232.489 26.384 231.593 26.384C229.129 26.384 228.345 25.408 228.137 23.984H227.625C226.553 25.424 224.729 26.384 222.633 26.384C219.753 26.384 217.785 24.576 217.785 21.76C217.785 16.912 223.577 16.176 227.785 16.272V13.92C227.785 12.352 226.761 11.728 225.321 11.712C223.785 11.696 222.841 12.4 222.841 13.584V14.176H218.345V13.36C218.345 10.384 220.281 8.30396 225.497 8.30396ZM223.129 21.024C223.129 22.08 223.961 22.768 225.305 22.768C226.169 22.768 227.033 22.48 227.785 22.016V18.864C227.529 18.848 227.273 18.832 226.985 18.832C224.441 18.832 223.129 19.696 223.129 21.024Z" fill="black"/>
<path d="M197.174 8.68799H201.878L203.014 18.112H203.222L205.046 10.448H208.134L209.462 18.112H209.734L210.95 8.68799H215.542L212.518 26H208.438L206.39 16.768H206.198L203.942 26H200.166L197.174 8.68799Z" fill="black"/>
<path d="M185.81 8.30396C190.306 8.30396 193.218 9.79196 193.218 13.728V21.152C193.218 22.128 193.49 22.4 194.786 22.336V26C193.746 26.256 192.802 26.384 191.906 26.384C189.442 26.384 188.658 25.408 188.45 23.984H187.938C186.866 25.424 185.042 26.384 182.946 26.384C180.066 26.384 178.098 24.576 178.098 21.76C178.098 16.912 183.89 16.176 188.098 16.272V13.92C188.098 12.352 187.074 11.728 185.634 11.712C184.098 11.696 183.154 12.4 183.154 13.584V14.176H178.658V13.36C178.658 10.384 180.594 8.30396 185.81 8.30396ZM183.442 21.024C183.442 22.08 184.274 22.768 185.618 22.768C186.482 22.768 187.346 22.48 188.098 22.016V18.864C187.842 18.848 187.586 18.832 187.298 18.832C184.754 18.832 183.442 19.696 183.442 21.024Z" fill="black"/>
<path d="M166.958 8.68796L167.198 11.312H167.822C169.182 9.32796 170.67 8.30396 173.294 8.30396C173.95 8.30396 174.478 8.36796 175.006 8.51196V13.424C171.902 13.424 169.694 13.552 167.566 14.32V21.824H172.35V26H158.814V21.824H162.446V12.864H158.814V8.68796H166.958Z" fill="black"/>
<path d="M138.154 17.424C138.154 12.352 139.978 8.33602 144.57 8.33602C147.018 8.33602 148.618 9.47202 149.354 10.752H149.61V1.52002H154.73V26H150.218L149.978 23.984H149.37C148.442 25.248 146.874 26.416 144.442 26.416C139.978 26.416 138.154 22.496 138.154 17.424ZM143.306 17.424C143.306 20.848 144.458 22.208 146.922 22.208C147.818 22.208 148.762 22.016 149.61 21.696V13.04C148.714 12.704 147.77 12.528 146.922 12.528C144.458 12.528 143.306 14 143.306 17.424Z" fill="black"/>
<path d="M124.199 26H119.079V1.52002H124.199V11.312H124.759C126.551 9.36002 127.959 8.30402 130.503 8.30402C133.447 8.30402 134.887 9.72802 134.887 13.168V26H129.767V14.48C129.767 12.816 129.031 12.352 127.863 12.352C126.503 12.352 125.303 12.992 124.199 13.936V26Z" fill="black"/>
<path d="M102.771 20.704V12.864H98.7869V8.68803H102.771V4.17603H107.891V8.68803H114.147V12.864H107.891V20.752C107.891 22.064 108.691 22.464 109.443 22.464C110.131 22.464 110.979 22.128 110.979 20.8V19.584H114.467V20.704C114.467 24.704 112.275 26.368 108.547 26.368C104.691 26.368 102.771 24.608 102.771 20.704Z" fill="black"/>
<path d="M82.0791 25.9999V21.8239H86.0631V12.8639H82.0791V8.68789L90.6071 8.25588L91.1831 8.81589V21.8239H95.1351V25.9999H82.0791ZM84.6071 3.43988C84.6071 1.58389 85.9351 0.431885 87.9031 0.431885C89.8711 0.431885 91.1991 1.58389 91.1991 3.43988C91.1991 5.29589 89.8711 6.49588 87.9031 6.49588C85.9351 6.49588 84.6071 5.29589 84.6071 3.43988Z" fill="black"/>
<path d="M58.2034 2.63989H63.1154L64.6514 15.2479H64.9714L67.0834 6.52789H70.1234L71.9154 15.2479H72.2354L73.9154 2.63989H78.6194L75.0834 25.9999H70.9074L68.3954 13.9839H68.2034L65.5474 25.9999H61.7234L58.2034 2.63989Z" fill="black"/>
<path d="M56.2795 17.44C56.2795 23.856 52.3115 26.384 47.6075 26.384C42.9035 26.384 38.9355 23.856 38.9355 17.44C38.9355 11.024 42.9035 8.30396 47.6075 8.30396C52.3115 8.30396 56.2795 11.024 56.2795 17.44ZM44.0875 17.424C44.0875 21.44 45.6075 22.48 47.6075 22.48C49.6075 22.48 51.1275 21.44 51.1275 17.424C51.1275 13.408 49.6075 12.208 47.6075 12.208C45.6075 12.208 44.0875 13.408 44.0875 17.424Z" fill="black"/>
<path d="M28.0517 8.68796L28.2917 11.312H28.9157C30.2757 9.32796 31.7637 8.30396 34.3877 8.30396C35.0437 8.30396 35.5717 8.36796 36.0997 8.51196V13.424C32.9957 13.424 30.7877 13.552 28.6597 14.32V21.824H33.4437V26H19.9077V21.824H23.5397V12.864H19.9077V8.68796H28.0517Z" fill="black"/>
<path d="M5.69601 25.9999H0.432007V2.63989H9.05601C13.728 2.63989 16.64 4.51189 16.64 9.40789C16.64 14.3039 13.664 18.1279 6.28801 18.1279H5.69601V25.9999ZM5.69601 14.1599H7.08801C10.336 14.1599 11.168 12.4319 11.168 9.95189C11.168 7.45589 10.08 6.46389 7.34401 6.46389H5.69601V14.1599Z" fill="black"/>
</svg>